<svg xmlns="http://www.w3.org/2000/svg" width="244" height="251" viewBox="0 0 244 251">
<g>
<path d="M 105.00 228.02 L 105.00 241.00 L 15.00 241.00 L 15.00 100.00 L 27.99 100.00 L 28.50 227.50 L 66.75 227.76 ZM 233.76 84.25 L 233.50 154.50 L 226.75 154.80 L 220.00 155.09 L 220.00 28.00 L 195.00 28.00 L 195.00 14.00 L 234.01 14.00 ZM 160.54 239.12 C155.55,241.39 146.60,241.50 142.50,239.34 C140.85,238.47 138.22,236.58 136.66,235.13 C131.41,230.26 130.68,227.66 130.64,213.50 C130.59,198.52 131.79,194.79 138.34,189.56 C142.01,186.64 142.62,186.50 151.42,186.50 C160.00,186.50 160.92,186.70 164.33,189.30 C170.34,193.89 171.38,196.89 171.82,210.92 C172.06,218.46 171.77,224.83 171.08,227.12 C169.56,232.22 165.45,236.89 160.54,239.12 ZM 205.50 215.50 L 204.50 240.50 L 197.75 240.80 L 191.00 241.09 L 191.00 185.90 L 197.11 186.20 L 203.23 186.50 L 210.67 198.00 C214.76,204.32 218.54,209.65 219.06,209.83 C219.61,210.03 220.00,205.23 220.00,198.08 L 220.00 186.00 L 234.03 186.00 L 233.77 213.25 L 233.50 240.50 L 227.79 240.80 L 222.09 241.10 L 219.38 236.80 C217.89,234.43 214.16,228.68 211.09,224.00 ZM 117.79 144.75 L 117.50 154.50 L 111.46 154.79 C108.14,154.95 105.10,154.77 104.71,154.38 C104.32,153.99 104.00,141.59 104.00,126.83 L 104.00 100.00 L 116.75 100.01 C132.00,100.01 135.85,100.93 139.88,105.51 C146.20,112.72 146.22,121.70 139.92,128.45 L 136.14 132.50 L 141.57 142.67 C144.56,148.27 147.00,153.33 147.00,153.92 C147.00,154.60 144.17,155.00 139.42,155.00 L 131.83 155.00 L 127.21 145.00 C123.35,136.66 122.21,135.00 120.33,135.00 C118.16,135.00 118.06,135.38 117.79,144.75 ZM 110.00 57.00 L 110.00 69.00 L 73.00 69.00 L 73.00 14.00 L 110.00 14.00 L 110.00 28.00 L 87.00 28.00 L 87.00 36.00 L 107.10 36.00 L 106.50 47.50 L 87.00 48.07 L 87.00 57.00 ZM 79.80 148.78 L 79.50 154.50 L 61.25 154.77 L 43.00 155.05 L 43.00 100.00 L 80.10 100.00 L 79.80 106.25 L 79.50 112.50 L 67.75 112.78 L 56.00 113.06 L 56.00 121.00 L 77.10 121.00 L 76.80 127.25 L 76.50 133.50 L 66.19 133.79 L 55.89 134.07 L 56.19 138.29 L 56.50 142.50 L 68.30 142.78 L 80.10 143.06 ZM 193.54 153.12 C185.56,156.75 171.23,155.12 163.94,149.76 L 161.57 148.01 L 165.90 143.60 L 170.22 139.20 L 174.36 141.08 C179.18,143.27 185.85,143.56 188.39,141.70 C189.57,140.84 190.06,139.42 189.84,137.49 C189.51,134.71 189.16,134.51 181.50,133.00 C177.10,132.13 172.52,130.88 171.32,130.21 C163.62,125.95 162.18,112.67 168.67,105.77 C172.66,101.52 176.90,100.00 184.72,100.01 C192.53,100.01 197.45,101.21 201.00,103.96 L 203.50 105.89 L 199.24 110.11 C195.39,113.93 194.77,114.21 192.70,113.10 C189.34,111.31 179.98,112.07 178.61,114.25 C177.81,115.52 177.81,116.48 178.61,117.74 C179.73,119.52 181.06,119.97 191.40,122.03 C198.26,123.40 201.31,125.95 203.05,131.78 C205.70,140.61 201.80,149.37 193.54,153.12 ZM 147.78 58.25 L 147.50 68.50 L 140.75 68.80 L 134.00 69.09 L 134.00 14.00 L 171.09 14.00 L 170.80 20.75 L 170.50 27.50 L 148.00 28.07 L 148.00 36.00 L 168.00 36.00 L 168.00 48.00 L 148.07 48.00 ZM 38.82 66.79 C30.66,70.64 23.61,70.39 16.51,66.01 L 12.81 63.72 L 17.41 59.12 C21.48,55.05 22.23,54.66 23.99,55.76 C26.92,57.59 30.73,57.27 33.00,55.00 C34.86,53.14 35.00,51.67 35.00,33.50 L 35.00 14.00 L 49.17 14.00 L 48.84 35.33 C48.50,56.53 48.49,56.67 45.82,60.70 C44.18,63.17 41.44,65.56 38.82,66.79 ZM 146.86 227.09 C150.08,229.70 153.19,229.49 156.03,226.46 C158.23,224.13 158.42,223.10 158.42,213.61 C158.42,201.21 157.02,198.00 151.63,198.00 C145.63,198.00 144.50,200.49 144.50,213.70 C144.50,224.56 144.63,225.28 146.86,227.09 ZM 118.00 113.00 L 118.00 123.00 L 122.98 123.00 C127.20,123.00 128.20,122.62 129.62,120.46 C130.95,118.42 131.06,117.43 130.16,115.46 C129.17,113.28 128.42,113.00 123.52,113.00 Z" fill="rgb(0,0,0)"/>
<path d="M 0.00 125.50 L 0.00 0.00 L 122.00 0.00 L 244.00 0.00 L 244.00 125.50 L 244.00 251.00 L 122.00 251.00 L 0.00 251.00 L 0.00 125.50 ZM 105.00 234.51 L 105.00 228.02 L 66.75 227.76 L 28.50 227.50 L 28.24 163.75 L 27.99 100.00 L 21.49 100.00 L 15.00 100.00 L 15.00 170.50 L 15.00 241.00 L 60.00 241.00 L 105.00 241.00 L 105.00 234.51 ZM 160.54 239.12 C165.45,236.89 169.56,232.22 171.08,227.12 C171.77,224.83 172.06,218.46 171.82,210.92 C171.38,196.89 170.34,193.89 164.33,189.30 C160.92,186.70 160.00,186.50 151.42,186.50 C142.62,186.50 142.01,186.64 138.34,189.56 C131.79,194.79 130.59,198.52 130.64,213.50 C130.68,227.66 131.41,230.26 136.66,235.13 C138.22,236.58 140.85,238.47 142.50,239.34 C146.60,241.50 155.55,241.39 160.54,239.12 ZM 205.00 228.00 L 205.50 215.50 L 211.09 224.00 C214.16,228.68 217.89,234.43 219.38,236.80 L 222.09 241.10 L 227.79 240.80 L 233.50 240.50 L 233.77 213.25 L 234.03 186.00 L 227.02 186.00 L 220.00 186.00 L 220.00 198.08 C220.00,205.23 219.61,210.03 219.06,209.83 C218.54,209.65 214.76,204.32 210.67,198.00 L 203.23 186.50 L 197.11 186.20 L 191.00 185.90 L 191.00 213.50 L 191.00 241.09 L 197.75 240.80 L 204.50 240.50 L 205.00 228.00 ZM 79.80 148.78 L 80.10 143.06 L 68.30 142.78 L 56.50 142.50 L 56.19 138.29 L 55.89 134.07 L 66.19 133.79 L 76.50 133.50 L 76.80 127.25 L 77.10 121.00 L 66.55 121.00 L 56.00 121.00 L 56.00 117.03 L 56.00 113.06 L 67.75 112.78 L 79.50 112.50 L 79.80 106.25 L 80.10 100.00 L 61.55 100.00 L 43.00 100.00 L 43.00 127.52 L 43.00 155.05 L 61.25 154.77 L 79.50 154.50 L 79.80 148.78 ZM 117.79 144.75 C118.06,135.38 118.16,135.00 120.33,135.00 C122.21,135.00 123.35,136.66 127.21,145.00 L 131.83 155.00 L 139.42 155.00 C144.17,155.00 147.00,154.60 147.00,153.92 C147.00,153.33 144.56,148.27 141.57,142.67 L 136.14 132.50 L 139.92 128.45 C146.22,121.70 146.20,112.72 139.88,105.51 C135.85,100.93 132.00,100.01 116.75,100.01 L 104.00 100.00 L 104.00 126.83 C104.00,141.59 104.32,153.99 104.71,154.38 C105.10,154.77 108.14,154.95 111.46,154.79 L 117.50 154.50 L 117.79 144.75 ZM 193.54 153.12 C201.80,149.37 205.70,140.61 203.05,131.78 C201.31,125.95 198.26,123.40 191.40,122.03 C181.06,119.97 179.73,119.52 178.61,117.74 C177.81,116.48 177.81,115.52 178.61,114.25 C179.98,112.07 189.34,111.31 192.70,113.10 C194.77,114.21 195.39,113.93 199.24,110.11 L 203.50 105.89 L 201.00 103.96 C197.45,101.21 192.53,100.01 184.72,100.01 C176.90,100.00 172.66,101.52 168.67,105.77 C162.18,112.67 163.62,125.95 171.32,130.21 C172.52,130.88 177.10,132.13 181.50,133.00 C189.16,134.51 189.51,134.71 189.84,137.49 C190.06,139.42 189.57,140.84 188.39,141.70 C185.85,143.56 179.18,143.27 174.36,141.08 L 170.22 139.20 L 165.90 143.60 L 161.57 148.01 L 163.94 149.76 C171.23,155.12 185.56,156.75 193.54,153.12 ZM 233.76 84.25 L 234.01 14.00 L 214.51 14.00 L 195.00 14.00 L 195.00 21.00 L 195.00 28.00 L 207.50 28.00 L 220.00 28.00 L 220.00 91.55 L 220.00 155.09 L 226.75 154.80 L 233.50 154.50 L 233.76 84.25 ZM 38.82 66.79 C41.44,65.56 44.18,63.17 45.82,60.70 C48.49,56.67 48.50,56.53 48.84,35.33 L 49.17 14.00 L 42.09 14.00 L 35.00 14.00 L 35.00 33.50 C35.00,51.67 34.86,53.14 33.00,55.00 C30.73,57.27 26.92,57.59 23.99,55.76 C22.23,54.66 21.48,55.05 17.41,59.12 L 12.81 63.72 L 16.51 66.01 C23.61,70.39 30.66,70.64 38.82,66.79 ZM 110.00 63.00 L 110.00 57.00 L 98.50 57.00 L 87.00 57.00 L 87.00 52.54 L 87.00 48.07 L 96.75 47.79 L 106.50 47.50 L 106.80 41.75 L 107.10 36.00 L 97.05 36.00 L 87.00 36.00 L 87.00 32.00 L 87.00 28.00 L 98.50 28.00 L 110.00 28.00 L 110.00 21.00 L 110.00 14.00 L 91.50 14.00 L 73.00 14.00 L 73.00 41.50 L 73.00 69.00 L 91.50 69.00 L 110.00 69.00 L 110.00 63.00 ZM 147.78 58.25 L 148.07 48.00 L 158.03 48.00 L 168.00 48.00 L 168.00 42.00 L 168.00 36.00 L 158.00 36.00 L 148.00 36.00 L 148.00 32.03 L 148.00 28.07 L 159.25 27.78 L 170.50 27.50 L 170.80 20.75 L 171.09 14.00 L 152.55 14.00 L 134.00 14.00 L 134.00 41.55 L 134.00 69.09 L 140.75 68.80 L 147.50 68.50 L 147.78 58.25 ZM 146.86 227.09 C144.63,225.28 144.50,224.56 144.50,213.70 C144.50,200.49 145.63,198.00 151.63,198.00 C157.02,198.00 158.42,201.21 158.42,213.61 C158.42,223.10 158.23,224.13 156.03,226.46 C153.19,229.49 150.08,229.70 146.86,227.09 ZM 118.00 118.00 L 118.00 113.00 L 123.52 113.00 C128.42,113.00 129.17,113.28 130.16,115.46 C131.06,117.43 130.95,118.42 129.62,120.46 C128.20,122.62 127.20,123.00 122.98,123.00 L 118.00 123.00 L 118.00 118.00 Z" fill="rgb(254,254,254)"/>
</g>
</svg>